<?xml version="1.0" encoding="utf-8"?>
<!-- Generator: Adobe Illustrator 22.0.0, SVG Export Plug-In . SVG Version: 6.00 Build 0)  -->
<svg fill="white" version="1.1" xmlns="http://www.w3.org/2000/svg" xmlns:xlink="http://www.w3.org/1999/xlink" x="0px" y="0px"
	 viewBox="0 0 502 502" style="enable-background:new 0 0 502 502;" xml:space="preserve">
<g id="Слой_1__x28_копия_x29_">
</g>
<g id="Слой_1">
	<g>
		<path d="M251,84c44.6,0,86.5,17.4,118.1,48.9S418,206.4,418,251s-17.4,86.5-48.9,118.1S295.6,418,251,418s-86.5-17.4-118.1-48.9
			S84,295.6,84,251s17.4-86.5,48.9-118.1S206.4,84,251,84 M251,49C139.4,49,49,139.4,49,251s90.4,202,202,202s202-90.4,202-202
			S362.6,49,251,49L251,49z"/>
	</g>
	<g>
		<circle cx="251" cy="251" r="37"/>
	</g>
	<g>
		<circle cx="419.5" cy="414.5" r="63.5"/>
	</g>
</g>
</svg>
